<svg xmlns="http://www.w3.org/2000/svg" width="2110" height="1000" viewBox="9 400 2500.522 760.921">
  <g id="Layer_2" data-name="Layer 2" transform="translate(1647.992 1747.846) rotate(-20)" opacity="0.15">
    <g id="Layer_1" data-name="Layer 1" transform="translate(-762.209 -1464.63)">
      <path id="Path_244" data-name="Path 244" d="M1920.68,454.37C1687.19,355.14,453.84-603.82,670.19,611.7c171,655-521.43,49.11-669,236" fill="none" stroke="#fff" stroke-miterlimit="10" stroke-width="3"/>
      <path id="Path_245" data-name="Path 245" d="M1920.68,439.32C1802.3,389,1393.33,100.54,1077.34,33.19c-274.61-58.53-481.62-2.95-413.29,535.2,1.56,12.31,3,24.9,5.39,37.58C793.8,1260.49,149.35,659.82,1.18,839.66" fill="none" stroke="#fff" stroke-miterlimit="10" stroke-width="3"/>
      <path id="Path_246" data-name="Path 246" d="M1920.68,424.27c-113-48-526.37-330.79-837.43-381.69C811.89-1.83,613.15,23.8,664.33,563.2c1.15,12.15,2.35,24.54,4.35,37C772.45,1248.17,150,658.84,1.18,831.6" fill="none" stroke="#fff" stroke-miterlimit="10" stroke-width="3"/>
      <path id="Path_247" data-name="Path 247" d="M1920.68,409.22C1813.06,363.48,1395.19,86.48,1089.15,52,821,21.73,630.79,17.14,664.6,558c.75,12,1.72,24.19,3.32,36.5,83.14,641.52-517.38,63.34-666.74,229" fill="none" stroke="#fff" stroke-miterlimit="10" stroke-width="3"/>
      <path id="Path_248" data-name="Path 248" d="M1920.68,394.17C1818.44,350.72,1396,79.54,1095.05,61.35c-265.11-16-446.4-51.08-430.17,491.47.36,11.83,1.09,23.83,2.28,36,62.44,635.29-516,68.08-666,226.69" fill="none" stroke="#fff" stroke-miterlimit="10" stroke-width="3"/>
      <path id="Path_249" data-name="Path 249" d="M1920.68,379.12C1823.82,338,1396.64,72.7,1101,70.74,838.83,69,666.77,3.22,665.16,547.63c0,11.67.45,23.48,1.24,35.42C708.05,1212.28,151.72,655.88,1.18,807.4" fill="none" stroke="#fff" stroke-miterlimit="10" stroke-width="3"/>
      <path id="Path_250" data-name="Path 250" d="M1920.68,364.07C1829.2,325.2,1397.24,66,1106.85,80.13,847.65,92.78,685.18-4,665.44,542.44c-.42,11.5-.19,23.13.2,34.88,20.76,623.34-513.33,77.57-664.46,222" fill="none" stroke="#fff" stroke-miterlimit="10" stroke-width="3"/>
      <path id="Path_251" data-name="Path 251" d="M1920.68,349c-86.1-36.59-522.92-289.67-807.93-259.5-256.36,27.13-408.86-100.84-447,447.73-.79,11.33-.83,22.79-.84,34.34-.26,617.63-512,82.31-663.7,219.68" fill="none" stroke="#fff" stroke-miterlimit="10" stroke-width="3"/>
      <path id="Path_252" data-name="Path 252" d="M1920.68,334c-80.72-34.3-522.44-281.08-802-235.06C865.09,140.64,722.94-18.74,666,532.06c-1.16,11.15-1.48,22.45-1.87,33.8C642.69,1177.93,153.5,652.92,1.18,783.21" fill="none" stroke="#fff" stroke-miterlimit="10" stroke-width="3"/>
      <path id="Path_253" data-name="Path 253" d="M1920.68,318.92c-75.33-32-522-272.35-796.12-210.63C873.77,164.76,742.33-26.22,666.28,526.87c-1.51,11-2.13,22.11-2.91,33.26-42.77,606.67-509.28,91.8-662.19,215" fill="none" stroke="#fff" stroke-miterlimit="10" stroke-width="3"/>
      <path id="Path_254" data-name="Path 254" d="M1920.68,303.87c-70-29.73-521.53-263.47-790.22-186.19-248,71.34-368.37-151.38-463.91,404-1.85,10.8-2.77,21.77-3.94,32.72C598.3,1155.79,154.68,651,1.18,767.08" fill="none" stroke="#fff" stroke-miterlimit="10" stroke-width="3"/>
      <path id="Path_255" data-name="Path 255" d="M1920.68,288.82c-64.57-27.44-521-254.44-784.32-161.75C891.14,213.4,782.23-41.15,666.83,516.5c-2.2,10.62-3.43,21.42-5,32.17C575.57,1144.86,155.27,650,1.18,759" fill="none" stroke="#fff" stroke-miterlimit="10" stroke-width="3"/>
      <path id="Path_256" data-name="Path 256" d="M1920.68,273.77c-59.19-25.15-520.52-245.27-778.42-137.31-242.37,101.46-339.52-185-475.15,374.85-2.53,10.45-4.09,21.09-6,31.63-108,591.14-505.23,106-659.91,208" fill="none" stroke="#fff" stroke-miterlimit="10" stroke-width="3"/>
      <path id="Path_257" data-name="Path 257" d="M1920.68,258.72c-53.81-22.86-519.92-236-772.52-112.87C908.7,262.55,823.64-55.81,667.39,506.12c-2.86,10.28-4.76,20.75-7.06,31.09C530.07,1123.33,156.45,648,1.18,742.88" fill="none" stroke="#fff" stroke-miterlimit="10" stroke-width="3"/>
      <path id="Path_258" data-name="Path 258" d="M1920.68,243.67c-48.43-20.58-519.23-226.58-766.62-88.44C917.59,287.29,844.92-62.94,667.67,500.93c-3.18,10.11-5.43,20.42-8.09,30.55C506.82,1112.61,157.05,647,1.18,734.81" fill="none" stroke="#fff" stroke-miterlimit="10" stroke-width="3"/>
      <path id="Path_259" data-name="Path 259" d="M1920.68,228.62c-43-18.29-518.45-217.1-760.71-64C926.59,312.11,866.57-69.88,668,495.74c-3.5,9.95-6.11,20.09-9.13,30C483.3,1101.88,157.64,646,1.18,726.75" fill="none" stroke="#fff" stroke-miterlimit="10" stroke-width="3"/>
      <path id="Path_260" data-name="Path 260" d="M1920.68,213.57C1883,197.57,1403.12,6,1165.87,174,935.68,337,888.58-76.59,668.23,490.55c-3.81,9.79-6.79,19.75-10.17,29.47C459.5,1091.11,158.23,645,1.18,718.68" fill="none" stroke="#fff" stroke-miterlimit="10" stroke-width="3"/>
      <path id="Path_261" data-name="Path 261" d="M1920.68,198.52c-32.29-13.72-516.55-198-748.91-15.12C944.89,361.94,910.92-83,668.51,485.36,664.4,495,661,504.78,657.3,514.29,435.43,1080.27,158.82,644,1.18,710.62" fill="none" stroke="#fff" stroke-miterlimit="10" stroke-width="3"/>
      <path id="Path_262" data-name="Path 262" d="M1920.68,183.47c-26.91-11.43-515.44-188.37-743,9.32C954.2,386.91,933.58-89.23,668.78,480.17c-4.4,9.48-8.16,19.08-12.24,28.39-245.45,560.76-497.13,134.5-655.36,194" fill="none" stroke="#fff" stroke-miterlimit="10" stroke-width="3"/>
      <path id="Path_263" data-name="Path 263" d="M1920.68,168.43c-21.53-9.15-514.23-178.77-737.11,33.75C963.62,411.9,956.54-95.11,669.06,475c-4.7,9.33-8.86,18.74-13.28,27.85C386.48,1058.23,160,642.07,1.18,694.49" fill="none" stroke="#fff" stroke-miterlimit="10" stroke-width="3"/>
      <path id="Path_264" data-name="Path 264" d="M1920.68,153.38c-16.15-6.86-512.92-169.16-731.21,58.18C973.14,436.88,979.75-100.66,669.34,469.79c-5,9.19-9.56,18.4-14.31,27.31C361.64,1047,160.6,641.08,1.18,686.42" fill="none" stroke="#fff" stroke-miterlimit="10" stroke-width="3"/>
      <path id="Path_265" data-name="Path 265" d="M1920.68,138.33c-10.76-4.58-511.52-159.58-725.31,82.62C982.74,461.85,1003.2-105.88,669.62,464.61c-5.29,9-10.27,18-15.35,26.76C336.56,1035.51,161.19,640.1,1.18,678.36" fill="none" stroke="#fff" stroke-miterlimit="10" stroke-width="3"/>
      <path id="Path_266" data-name="Path 266" d="M1920.68,123.28c-5.38-2.29-510-150-719.4,107.06C992.42,486.8,1026.85-110.75,669.9,459.42c-5.58,8.91-11,17.69-16.39,26.22C311.28,1023.83,161.78,639.11,1.18,670.29" fill="none" stroke="#fff" stroke-miterlimit="10" stroke-width="3"/>
      <path id="Path_267" data-name="Path 267" d="M1920.68,108.23s-508.5-140.5-713.5,131.5-156.5-355-537,214.5-505.28,183.52-669,208" fill="none" stroke="#fff" stroke-miterlimit="10" stroke-width="3"/>
    </g>
  </g>
</svg>
